<svg xmlns="http://www.w3.org/2000/svg" viewBox="0 0 800 420" width="800" height="420">
  <rect width="800" height="420" fill="#f8fafc"/>
  <text x="400" y="32" fill="#0f172a" font-family="system-ui,sans-serif" font-size="16" font-weight="600" text-anchor="middle">Raqib  Module landscape (navigation groups)</text>
  <g font-family="system-ui,sans-serif" font-size="10">
    <rect x="24" y="56" width="176" height="148" rx="8" fill="#fff" stroke="#cbd5e1"/>
    <text x="112" y="78" fill="#0f172a" font-weight="600" text-anchor="middle">Organization overview</text>
    <text x="112" y="98" fill="#475569" text-anchor="middle">Management dashboard</text>
    <text x="112" y="114" fill="#475569" text-anchor="middle">Org overview · Org dashboard</text>
    <text x="112" y="130" fill="#475569" text-anchor="middle">Portfolio connections</text>
    <text x="112" y="146" fill="#475569" text-anchor="middle">Action tracker</text>
    <rect x="216" y="56" width="176" height="148" rx="8" fill="#fff" stroke="#cbd5e1"/>
    <text x="304" y="78" fill="#0f172a" font-weight="600" text-anchor="middle">Governance</text>
    <text x="304" y="98" fill="#475569" text-anchor="middle">Onboarding</text>
    <text x="304" y="114" fill="#475569" text-anchor="middle">Parent holding overview</text>
    <text x="304" y="130" fill="#475569" text-anchor="middle">Governance framework</text>
    <text x="304" y="146" fill="#475569" text-anchor="middle">Dependency intelligence</text>
    <rect x="408" y="56" width="176" height="148" rx="8" fill="#fff" stroke="#cbd5e1"/>
    <text x="496" y="78" fill="#0f172a" font-weight="600" text-anchor="middle">Ownership</text>
    <text x="496" y="98" fill="#475569" text-anchor="middle">Multi-jurisdiction matrix</text>
    <text x="496" y="114" fill="#475569" text-anchor="middle">Ultimate beneficiary owner</text>
    <rect x="600" y="56" width="176" height="148" rx="8" fill="#fff" stroke="#cbd5e1"/>
    <text x="688" y="78" fill="#0f172a" font-weight="600" text-anchor="middle">ESG</text>
    <text x="688" y="98" fill="#475569" text-anchor="middle">ESG summary</text>
    <rect x="24" y="220" width="176" height="168" rx="8" fill="#fff" stroke="#cbd5e1"/>
    <text x="112" y="242" fill="#0f172a" font-weight="600" text-anchor="middle">Legal</text>
    <text x="112" y="262" fill="#475569" text-anchor="middle">Legal document onboarding</text>
    <text x="112" y="278" fill="#475569" text-anchor="middle">POA · IP · Licences</text>
    <text x="112" y="294" fill="#475569" text-anchor="middle">Litigations</text>
    <rect x="216" y="220" width="176" height="168" rx="8" fill="#fff" stroke="#cbd5e1"/>
    <text x="304" y="242" fill="#0f172a" font-weight="600" text-anchor="middle">Contracts</text>
    <text x="304" y="262" fill="#475569" text-anchor="middle">Contract lifecycle</text>
    <text x="304" y="278" fill="#475569" text-anchor="middle">Upload document contract</text>
    <rect x="408" y="220" width="176" height="168" rx="8" fill="#fff" stroke="#cbd5e1"/>
    <text x="496" y="242" fill="#0f172a" font-weight="600" text-anchor="middle">Data compliance</text>
    <text x="496" y="262" fill="#475569" text-anchor="middle">Data sovereignty</text>
    <text x="496" y="278" fill="#475569" text-anchor="middle">Data security compliance</text>
    <rect x="600" y="220" width="176" height="168" rx="8" fill="#fff" stroke="#cbd5e1"/>
    <text x="688" y="242" fill="#0f172a" font-weight="600" text-anchor="middle">Analysis</text>
    <text x="688" y="262" fill="#475569" text-anchor="middle">Risk predictor</text>
    <text x="688" y="278" fill="#475569" text-anchor="middle">M&amp;A simulator</text>
  </g>
  <text x="400" y="404" fill="#64748b" font-family="system-ui,sans-serif" font-size="9" text-anchor="middle">Role-based visibility may hide modules  see application header role selector</text>
</svg>
