<svg xmlns="http://www.w3.org/2000/svg" width="960" height="520" viewBox="0 0 960 520" role="img" aria-label="Ownership graph desktop wireframe">
  <rect width="960" height="520" fill="#f8fafc"/>
  <rect x="16" y="16" width="928" height="44" rx="6" fill="#ffffff" stroke="#e2e8f0"/>
  <text x="32" y="44" font-family="system-ui,sans-serif" font-size="13" fill="#334155">Document · Extracted time · Legend · Focus subject · Layout</text>
  <rect x="16" y="72" width="600" height="432" rx="6" fill="#ffffff" stroke="#e2e8f0"/>
  <pattern id="dots" width="14" height="14" patternUnits="userSpaceOnUse">
    <circle cx="1" cy="1" r="0.8" fill="#cbd5e1" opacity="0.35"/>
  </pattern>
  <rect x="24" y="80" width="584" height="416" fill="url(#dots)"/>
  <rect x="280" y="200" width="120" height="48" rx="8" fill="#eff6ff" stroke="#2563eb" stroke-width="2"/>
  <text x="340" y="230" text-anchor="middle" font-family="system-ui,sans-serif" font-size="12" fill="#1e3a8a">Subject</text>
  <rect x="200" y="120" width="100" height="40" rx="8" fill="#ffffff" stroke="#cbd5e1"/>
  <rect x="380" y="120" width="100" height="40" rx="8" fill="#ffffff" stroke="#cbd5e1"/>
  <line x1="340" y1="168" x2="250" y2="160" stroke="#64748b" stroke-width="2" marker-end="url(#arr)"/>
  <line x1="340" y1="168" x2="430" y2="160" stroke="#64748b" stroke-width="2" marker-end="url(#arr)"/>
  <defs>
    <marker id="arr" markerWidth="8" markerHeight="8" refX="6" refY="4" orient="auto">
      <polygon points="0 0, 8 4, 0 8" fill="#64748b"/>
    </marker>
  </defs>
  <rect x="628" y="72" width="316" height="432" rx="6" fill="#ffffff" stroke="#e2e8f0"/>
  <text x="644" y="104" font-family="system-ui,sans-serif" font-size="14" font-weight="600" fill="#0f172a">Detail pane</text>
  <line x1="644" y1="116" x2="900" y2="116" stroke="#e2e8f0"/>
  <text x="644" y="148" font-family="system-ui,sans-serif" font-size="11" fill="#64748b">Upstream · Downstream · Evidence · Open in UBO register</text>
  <rect x="628" y="16" width="120" height="44" rx="6" fill="#fef3c7" stroke="#f59e0b" opacity="0.9"/>
  <text x="688" y="42" text-anchor="middle" font-family="system-ui,sans-serif" font-size="10" fill="#92400e">Minimap</text>
</svg>
