<?xml version="1.0" encoding="UTF-8"?>
<svg xmlns="http://www.w3.org/2000/svg" viewBox="0 0 1200 630" width="1200" height="630">
  <defs>
    <linearGradient id="heroBg" x1="0%" y1="0%" x2="100%" y2="100%">
      <stop offset="0%" stop-color="#0f172a"/>
      <stop offset="55%" stop-color="#1e293b"/>
      <stop offset="100%" stop-color="#0c4a6e"/>
    </linearGradient>
    <linearGradient id="cardShine" x1="0%" y1="0%" x2="0%" y2="100%">
      <stop offset="0%" stop-color="#ffffff" stop-opacity="0.08"/>
      <stop offset="100%" stop-color="#ffffff" stop-opacity="0"/>
    </linearGradient>
    <filter id="panelShadow" x="-2%" y="-2%" width="104%" height="108%">
      <feDropShadow dx="0" dy="8" stdDeviation="12" flood-opacity="0.25"/>
    </filter>
  </defs>
  <rect width="1200" height="630" fill="url(#heroBg)"/>
  <text x="600" y="44" text-anchor="middle" fill="#94a3b8" font-family="system-ui,Segoe UI,sans-serif" font-size="11" letter-spacing="0.2em">PRODUCT PREVIEW - REPRESENTATIVE UI</text>

  <!-- App shell -->
  <g transform="translate(48 72)" filter="url(#panelShadow)">
    <rect width="1104" height="510" rx="14" fill="#f1f5f9"/>
    <!-- Sidebar -->
    <rect width="200" height="510" rx="14" fill="#0f172a"/>
    <rect x="0" y="0" width="200" height="510" rx="14" fill="url(#cardShine)" opacity="0.5"/>
    <text x="100" y="38" text-anchor="middle" fill="#f8fafc" font-family="system-ui,sans-serif" font-size="13" font-weight="700">Raqib</text>
    <rect x="16" y="56" width="168" height="8" rx="4" fill="#334155"/>
    <text x="24" y="96" fill="#94a3b8" font-family="system-ui,sans-serif" font-size="9">ORG OVERVIEW</text>
    <rect x="16" y="104" width="168" height="28" rx="6" fill="#1e3a8a"/>
    <text x="28" y="122" fill="#e2e8f0" font-family="system-ui,sans-serif" font-size="10">Management Dashboard</text>
    <rect x="16" y="140" width="168" height="28" rx="6" fill="#1e293b"/>
    <text x="28" y="158" fill="#cbd5e1" font-family="system-ui,sans-serif" font-size="10">Organization</text>
    <rect x="16" y="176" width="168" height="28" rx="6" fill="#1e293b"/>
    <text x="28" y="194" fill="#cbd5e1" font-family="system-ui,sans-serif" font-size="10">Task Tracker</text>
    <text x="24" y="232" fill="#94a3b8" font-family="system-ui,sans-serif" font-size="9">GOVERNANCE</text>
    <rect x="16" y="240" width="168" height="28" rx="6" fill="#1e293b"/>
    <text x="28" y="258" fill="#cbd5e1" font-family="system-ui,sans-serif" font-size="10">Governance Framework</text>
    <rect x="16" y="274" width="168" height="28" rx="6" fill="#1e293b"/>
    <text x="28" y="292" fill="#cbd5e1" font-family="system-ui,sans-serif" font-size="10">UBO Register</text>
    <text x="24" y="330" fill="#94a3b8" font-family="system-ui,sans-serif" font-size="9">DATA</text>
    <rect x="16" y="338" width="168" height="28" rx="6" fill="#1e293b"/>
    <text x="28" y="356" fill="#cbd5e1" font-family="system-ui,sans-serif" font-size="10">Data Security</text>

    <!-- Main -->
    <rect x="200" y="0" width="904" height="56" fill="#ffffff"/>
    <text x="224" y="34" fill="#0f172a" font-family="system-ui,sans-serif" font-size="15" font-weight="700">Executive summary</text>
    <rect x="880" y="14" width="96" height="28" rx="6" fill="#f1f5f9" stroke="#e2e8f0"/>
    <text x="928" y="32" text-anchor="middle" fill="#475569" font-family="system-ui,sans-serif" font-size="10">30 days</text>

    <!-- KPI row -->
    <rect x="224" y="72" width="200" height="88" rx="10" fill="#ffffff" stroke="#e2e8f0"/>
    <rect x="224" y="72" width="4" height="88" rx="2" fill="#0ea5e9"/>
    <text x="240" y="98" fill="#64748b" font-family="system-ui,sans-serif" font-size="9">Compliance health</text>
    <text x="240" y="132" fill="#0f172a" font-family="system-ui,sans-serif" font-size="22" font-weight="700">87</text>
    <rect x="440" y="72" width="200" height="88" rx="10" fill="#ffffff" stroke="#e2e8f0"/>
    <rect x="440" y="72" width="4" height="88" rx="2" fill="#8b5cf6"/>
    <text x="456" y="98" fill="#64748b" font-family="system-ui,sans-serif" font-size="9">Regulatory changes</text>
    <text x="456" y="132" fill="#0f172a" font-family="system-ui,sans-serif" font-size="22" font-weight="700">142</text>
    <rect x="656" y="72" width="200" height="88" rx="10" fill="#ffffff" stroke="#e2e8f0"/>
    <rect x="656" y="72" width="4" height="88" rx="2" fill="#f59e0b"/>
    <text x="672" y="98" fill="#64748b" font-family="system-ui,sans-serif" font-size="9">Critical deadlines</text>
    <text x="672" y="132" fill="#0f172a" font-family="system-ui,sans-serif" font-size="22" font-weight="700">12</text>
    <rect x="872" y="72" width="200" height="88" rx="10" fill="#ffffff" stroke="#e2e8f0"/>
    <rect x="872" y="72" width="4" height="88" rx="2" fill="#10b981"/>
    <text x="888" y="98" fill="#64748b" font-family="system-ui,sans-serif" font-size="9">Active OpCos</text>
    <text x="888" y="132" fill="#0f172a" font-family="system-ui,sans-serif" font-size="22" font-weight="700">48</text>

    <!-- Chart panel -->
    <rect x="224" y="184" width="848" height="300" rx="12" fill="#ffffff" stroke="#e2e8f0"/>
    <text x="248" y="216" fill="#0f172a" font-family="system-ui,sans-serif" font-size="12" font-weight="600">Portfolio activity</text>
    <text x="248" y="236" fill="#94a3b8" font-family="system-ui,sans-serif" font-size="10">Framework concentration and OpCo exposure (illustrative)</text>
    <!-- Mini bars -->
    <rect x="268" y="280" width="36" height="120" rx="4" fill="#38bdf8" opacity="0.85"/>
    <rect x="320" y="300" width="36" height="100" rx="4" fill="#38bdf8" opacity="0.65"/>
    <rect x="372" y="260" width="36" height="140" rx="4" fill="#38bdf8" opacity="0.9"/>
    <rect x="424" y="320" width="36" height="80" rx="4" fill="#38bdf8" opacity="0.5"/>
    <rect x="476" y="290" width="36" height="110" rx="4" fill="#38bdf8" opacity="0.7"/>
    <rect x="528" y="270" width="36" height="130" rx="4" fill="#38bdf8" opacity="0.8"/>
    <line x1="248" y1="420" x2="1000" y2="420" stroke="#e2e8f0" stroke-width="1"/>
    <!-- Heat strip -->
    <text x="680" y="216" fill="#0f172a" font-family="system-ui,sans-serif" font-size="12" font-weight="600">OpCo exposure</text>
    <rect x="680" y="268" width="360" height="36" rx="6" fill="#ecfdf5" stroke="#bbf7d0"/>
    <rect x="688" y="276" width="48" height="20" rx="4" fill="#22c55e" opacity="0.35"/>
    <rect x="744" y="276" width="48" height="20" rx="4" fill="#22c55e" opacity="0.55"/>
    <rect x="800" y="276" width="48" height="20" rx="4" fill="#eab308" opacity="0.45"/>
    <rect x="856" y="276" width="48" height="20" rx="4" fill="#f97316" opacity="0.4"/>
    <rect x="912" y="276" width="48" height="20" rx="4" fill="#ef4444" opacity="0.35"/>
    <rect x="968" y="276" width="48" height="20" rx="4" fill="#22c55e" opacity="0.5"/>
  </g>
  <text x="600" y="612" text-anchor="middle" fill="#64748b" font-family="system-ui,sans-serif" font-size="10">Role-based navigation, KPIs, and portfolio views - React + Vite frontend</text>
</svg>
